<svg width="18" height="17" viewBox="0 0 18 17" fill="none" xmlns="http://www.w3.org/2000/svg">
<path d="M6.65856 10.1096L10.8485 5.9197C10.9216 5.84662 11.0083 5.78866 11.1038 5.74911C11.1993 5.70956 11.3016 5.6892 11.405 5.6892C11.5083 5.6892 11.6107 5.70956 11.7061 5.74911C11.8016 5.78866 11.8884 5.84662 11.9615 5.9197C12.0345 5.99278 12.0925 6.07954 12.132 6.17502C12.1716 6.2705 12.192 6.37283 12.192 6.47618C12.192 6.57953 12.1716 6.68186 12.132 6.77734C12.0925 6.87282 12.0345 6.95958 11.9615 7.03266L7.77151 11.2226C7.62392 11.3702 7.42375 11.4531 7.21503 11.4531C7.00631 11.4531 6.80614 11.3702 6.65856 11.2226C6.51097 11.075 6.42806 10.8748 6.42806 10.6661C6.42806 10.4574 6.51097 10.2572 6.65856 10.1096ZM15.2348 2.64631C14.4975 1.91059 13.4984 1.49741 12.4567 1.49741C11.4151 1.49741 10.416 1.91059 9.67859 2.64631L7.7067 4.61624C7.55911 4.76382 7.4762 4.96399 7.4762 5.17271C7.4762 5.27606 7.49655 5.3784 7.5361 5.47388C7.57565 5.56936 7.63362 5.65611 7.7067 5.72919C7.77977 5.80227 7.86653 5.86024 7.96201 5.89979C8.05749 5.93934 8.15983 5.95969 8.26317 5.95969C8.47189 5.95969 8.67206 5.87678 8.81965 5.72919L10.7883 3.76123C11.2303 3.31907 11.8299 3.07064 12.4552 3.07058C13.0804 3.07052 13.6801 3.31883 14.1222 3.7609C14.5644 4.20297 14.8128 4.80257 14.8129 5.42781C14.8129 6.05304 14.5646 6.6527 14.1225 7.09485L12.1513 9.06216C12.0782 9.13524 12.0203 9.22199 11.9807 9.31747C11.9412 9.41295 11.9208 9.51529 11.9208 9.61864C11.9208 9.72198 11.9412 9.82432 11.9807 9.9198C12.0203 10.0153 12.0782 10.102 12.1513 10.1751C12.2244 10.2482 12.3111 10.3062 12.4066 10.3457C12.5021 10.3853 12.6044 10.4056 12.7078 10.4056C12.8111 10.4056 12.9135 10.3853 13.009 10.3457C13.1044 10.3062 13.1912 10.2482 13.2643 10.1751L15.2335 8.20715C15.9696 7.46932 16.3829 6.46953 16.3825 5.4273C16.3821 4.38508 15.9682 3.38559 15.2316 2.64827L15.2348 2.64631ZM9.80232 11.4111L7.8337 13.3804C7.61477 13.5993 7.35487 13.7729 7.06884 13.8914C6.78281 14.0098 6.47625 14.0708 6.16666 14.0707C5.85707 14.0707 5.55053 14.0097 5.26452 13.8912C4.97851 13.7727 4.71864 13.599 4.49975 13.3801C4.05769 12.9379 3.80937 12.3383 3.80943 11.713C3.80949 11.0878 4.05793 10.4882 4.50008 10.0461L6.46804 8.07752C6.54112 8.00445 6.59909 7.91769 6.63864 7.82221C6.67819 7.72673 6.69854 7.62439 6.69854 7.52105C6.69854 7.4177 6.67819 7.31536 6.63864 7.21988C6.59909 7.1244 6.54112 7.03765 6.46804 6.96457C6.39497 6.89149 6.30821 6.83352 6.21273 6.79397C6.11725 6.75442 6.01491 6.73407 5.91157 6.73407C5.80822 6.73407 5.70588 6.75442 5.6104 6.79397C5.51492 6.83352 5.42817 6.89149 5.35509 6.96457L3.38844 8.93515C3.02361 9.30002 2.73422 9.73318 2.53679 10.2099C2.33936 10.6866 2.23776 11.1975 2.23779 11.7135C2.23785 12.7556 2.65187 13.7549 3.38876 14.4917C4.12566 15.2285 5.12506 15.6424 6.16712 15.6424C7.20919 15.6423 8.20854 15.2283 8.94535 14.4914L10.9133 12.5228C11.0609 12.3752 11.1438 12.175 11.1438 11.9663C11.1438 11.7576 11.0609 11.5574 10.9133 11.4098C10.7657 11.2623 10.5656 11.1793 10.3568 11.1793C10.1481 11.1793 9.94795 11.2623 9.80036 11.4098L9.80232 11.4111Z" fill="#343330"/>
</svg>
