<svg width="26" height="26" viewBox="0 0 26 26" fill="none" xmlns="http://www.w3.org/2000/svg">
<circle cx="13.4302" cy="12.5698" r="12.5698" fill="#737373"/>
<path d="M19.6872 6.82366C19.7157 6.75228 19.7227 6.67408 19.7073 6.59875C19.6918 6.52343 19.6546 6.4543 19.6002 6.39993C19.5459 6.34556 19.4767 6.30835 19.4014 6.29289C19.3261 6.27744 19.2479 6.28444 19.1765 6.31301L7.74817 10.8845H7.74739L7.39229 11.0259C7.32504 11.0527 7.2665 11.0976 7.22316 11.1556C7.17982 11.2136 7.15335 11.2825 7.14669 11.3546C7.14002 11.4267 7.15342 11.4992 7.18539 11.5642C7.21736 11.6292 7.26667 11.6841 7.32787 11.7228L7.64997 11.927L7.65076 11.9286L11.5749 14.4253L14.0716 18.3494L14.0732 18.351L14.2774 18.6731C14.3162 18.734 14.3711 18.7831 14.4361 18.8149C14.501 18.8467 14.5734 18.8599 14.6454 18.8532C14.7173 18.8464 14.786 18.82 14.8439 18.7767C14.9018 18.7334 14.9466 18.675 14.9735 18.6079L19.6872 6.82366ZM18.2471 8.30847L12.3597 14.1959L12.1908 13.9303C12.1599 13.8816 12.1186 13.8403 12.0698 13.8093L11.8043 13.6404L17.6917 7.75304L18.6172 7.38302L18.2479 8.30847H18.2471Z" fill="white"/>
</svg>
