<svg width="17" height="17" viewBox="0 0 17 17" fill="none" xmlns="http://www.w3.org/2000/svg">
<path d="M11.6788 10.5339C10.9586 11.7817 9.75468 12.4979 8.37986 12.4979C7.00503 12.4979 5.80304 11.7823 5.08093 10.5339C4.98125 10.3537 4.95625 10.1417 5.01133 9.94329C5.06641 9.74492 5.19715 9.5761 5.37544 9.47314C5.55372 9.37019 5.7653 9.34133 5.96464 9.39278C6.16398 9.44423 6.33517 9.57187 6.44136 9.74825C6.69603 10.1888 7.28655 10.9267 8.37986 10.9267C9.47317 10.9267 10.0637 10.1882 10.3184 9.74825C10.3689 9.65693 10.4371 9.57659 10.5191 9.51193C10.601 9.44727 10.695 9.39959 10.7956 9.37167C10.8961 9.34375 11.0013 9.33614 11.1048 9.34931C11.2083 9.36247 11.3082 9.39613 11.3986 9.44833C11.489 9.50052 11.5681 9.5702 11.6312 9.6533C11.6944 9.73641 11.7403 9.83126 11.7664 9.93232C11.7925 10.0334 11.7982 10.1386 11.7831 10.2419C11.7681 10.3452 11.7326 10.4444 11.6788 10.5339ZM15.4504 8.56983C15.4504 9.96825 15.0357 11.3353 14.2588 12.498C13.4819 13.6607 12.3776 14.567 11.0856 15.1021C9.79366 15.6373 8.37202 15.7773 7.00047 15.5045C5.62892 15.2317 4.36907 14.5583 3.38024 13.5694C2.39141 12.5806 1.71801 11.3208 1.44519 9.94922C1.17237 8.57767 1.31239 7.15602 1.84754 5.86405C2.38269 4.57208 3.28894 3.46782 4.45168 2.6909C5.61443 1.91398 6.98144 1.4993 8.37986 1.4993C10.2544 1.50138 12.0517 2.24697 13.3772 3.57251C14.7027 4.89804 15.4483 6.69525 15.4504 8.56983ZM13.8792 8.56983C13.8792 7.48217 13.5566 6.41894 12.9524 5.51458C12.3481 4.61022 11.4892 3.90537 10.4844 3.48914C9.47948 3.07291 8.37376 2.964 7.307 3.17619C6.24024 3.38839 5.26036 3.91214 4.49127 4.68123C3.72218 5.45033 3.19842 6.43021 2.98623 7.49697C2.77403 8.56373 2.88294 9.66945 3.29917 10.6743C3.7154 11.6792 4.42026 12.5381 5.32461 13.1423C6.22897 13.7466 7.2922 14.0691 8.37986 14.0691C9.83789 14.0676 11.2357 13.4877 12.2667 12.4567C13.2977 11.4257 13.8776 10.0279 13.8792 8.56983ZM6.02302 8.30796C6.23019 8.30796 6.43271 8.24652 6.60497 8.13142C6.77723 8.01632 6.91149 7.85273 6.99077 7.66133C7.07005 7.46992 7.09079 7.25931 7.05037 7.05612C7.00996 6.85292 6.91019 6.66628 6.7637 6.51979C6.61721 6.37329 6.43056 6.27353 6.22737 6.23311C6.02418 6.19269 5.81356 6.21344 5.62216 6.29272C5.43076 6.372 5.26716 6.50626 5.15206 6.67852C5.03696 6.85078 4.97553 7.0533 4.97553 7.26047C4.97553 7.53828 5.08589 7.80471 5.28233 8.00116C5.47877 8.1976 5.74521 8.30796 6.02302 8.30796ZM10.7367 6.21298C10.5295 6.21298 10.327 6.27442 10.1548 6.38952C9.98249 6.50462 9.84823 6.66821 9.76895 6.85962C9.68967 7.05102 9.66893 7.26163 9.70934 7.46483C9.74976 7.66802 9.84952 7.85466 9.99602 8.00116C10.1425 8.14765 10.3292 8.24741 10.5323 8.28783C10.7355 8.32825 10.9462 8.3075 11.1376 8.22822C11.329 8.14894 11.4926 8.01468 11.6077 7.84242C11.7228 7.67016 11.7842 7.46764 11.7842 7.26047C11.7842 6.98266 11.6738 6.71623 11.4774 6.51979C11.2809 6.32334 11.0145 6.21298 10.7367 6.21298Z" fill="#343330"/>
</svg>
