<svg width="24" height="24" viewBox="0 0 24 24" fill="none" xmlns="http://www.w3.org/2000/svg">
<path d="M19.5 4.875H17.1019L15.9375 3.12563C15.8346 2.97138 15.6952 2.84497 15.5316 2.75763C15.368 2.67029 15.1854 2.62473 15 2.625H9C8.81458 2.62473 8.63197 2.67029 8.46841 2.75763C8.30484 2.84497 8.16541 2.97138 8.0625 3.12563L6.89719 4.875H4.5C3.80381 4.875 3.13613 5.15156 2.64384 5.64385C2.15156 6.13613 1.875 6.80381 1.875 7.5V18C1.875 18.6962 2.15156 19.3639 2.64384 19.8562C3.13613 20.3484 3.80381 20.625 4.5 20.625H19.5C19.8447 20.625 20.1861 20.5571 20.5045 20.4252C20.823 20.2933 21.1124 20.0999 21.3562 19.8562C21.5999 19.6124 21.7933 19.323 21.9252 19.0045C22.0571 18.6861 22.125 18.3447 22.125 18V7.5C22.125 7.15528 22.0571 6.81394 21.9252 6.49546C21.7933 6.17698 21.5999 5.8876 21.3562 5.64385C21.1124 5.40009 20.823 5.20674 20.5045 5.07482C20.1861 4.9429 19.8447 4.875 19.5 4.875ZM19.875 18C19.875 18.0995 19.8355 18.1948 19.7652 18.2652C19.6948 18.3355 19.5995 18.375 19.5 18.375H4.5C4.40054 18.375 4.30516 18.3355 4.23484 18.2652C4.16451 18.1948 4.125 18.0995 4.125 18V7.5C4.125 7.40055 4.16451 7.30516 4.23484 7.23484C4.30516 7.16451 4.40054 7.125 4.5 7.125H7.5C7.68542 7.12528 7.86803 7.07972 8.03159 6.99238C8.19516 6.90503 8.33459 6.77862 8.4375 6.62438L9.60187 4.875H14.3972L15.5625 6.62438C15.6654 6.77862 15.8048 6.90503 15.9684 6.99238C16.132 7.07972 16.3146 7.12528 16.5 7.125H19.5C19.5995 7.125 19.6948 7.16451 19.7652 7.23484C19.8355 7.30516 19.875 7.40055 19.875 7.5V18ZM16.875 9.375V11.25C16.875 11.5484 16.7565 11.8345 16.5455 12.0455C16.3345 12.2565 16.0484 12.375 15.75 12.375H13.875C13.6449 12.3747 13.4204 12.3039 13.2319 12.172C13.0433 12.0402 12.8997 11.8537 12.8204 11.6377C12.7411 11.4217 12.7299 11.1865 12.7884 10.964C12.8469 10.7415 12.9722 10.5422 13.1475 10.3931C12.7143 10.183 12.2317 10.0957 11.7523 10.1408C11.273 10.186 10.8151 10.3618 10.4288 10.6491C10.1902 10.8287 9.89002 10.9062 9.5943 10.8646C9.29857 10.8229 9.03152 10.6654 8.85187 10.4269C8.67223 10.1883 8.59472 9.88815 8.63639 9.59242C8.67806 9.2967 8.83549 9.02965 9.07406 8.85C9.89961 8.23596 10.8975 7.89729 11.9262 7.88198C12.955 7.86667 13.9625 8.17549 14.8059 8.76469C14.9379 8.56114 15.132 8.40567 15.3595 8.32148C15.587 8.23729 15.8356 8.22888 16.0683 8.29751C16.3009 8.36614 16.5052 8.50812 16.6506 8.7023C16.7959 8.89647 16.8747 9.13244 16.875 9.375ZM15.1491 14.325C15.3283 14.5635 15.4055 14.8633 15.3636 15.1587C15.3218 15.4541 15.1643 15.7207 14.9259 15.9C14.0841 16.5313 13.0597 16.8715 12.0075 16.8694C11.0014 16.8699 10.0195 16.5609 9.195 15.9844C9.06328 16.1883 8.86914 16.3441 8.64156 16.4286C8.41398 16.5131 8.16517 16.5217 7.9323 16.4532C7.69942 16.3846 7.49497 16.2426 7.34947 16.0483C7.20396 15.8539 7.12522 15.6178 7.125 15.375V13.5C7.125 13.2016 7.24353 12.9155 7.4545 12.7045C7.66548 12.4935 7.95163 12.375 8.25 12.375H10.125C10.3551 12.3753 10.5796 12.4462 10.7681 12.578C10.9567 12.7098 11.1003 12.8963 11.1796 13.1123C11.2589 13.3283 11.2701 13.5635 11.2116 13.786C11.1531 14.0085 11.0278 14.2078 10.8525 14.3569C11.2857 14.567 11.7683 14.6543 12.2477 14.6092C12.727 14.564 13.1849 14.3882 13.5712 14.1009C13.6895 14.0118 13.8241 13.9469 13.9675 13.9099C14.1108 13.8729 14.2601 13.8646 14.4067 13.8854C14.5533 13.9062 14.6943 13.9558 14.8217 14.0312C14.9491 14.1067 15.0603 14.2065 15.1491 14.325Z" fill="#00994F"/>
</svg>
