<svg width="24" height="24" viewBox="0 0 24 24" fill="none" xmlns="http://www.w3.org/2000/svg">
<path d="M19.0847 4.78126C17.663 3.38267 15.8597 2.43552 13.9013 2.05883C11.9429 1.68214 9.91687 1.89274 8.07782 2.66414C6.23877 3.43555 4.66877 4.73334 3.56514 6.39442C2.46151 8.05549 1.8735 10.0057 1.875 12C1.875 16.1925 4.4625 19.7109 8.625 21.1819C9.13405 21.3619 9.67885 21.4171 10.2137 21.3429C10.7485 21.2687 11.2577 21.0673 11.6985 20.7556C12.1394 20.4439 12.499 20.031 12.7472 19.5515C12.9954 19.072 13.125 18.5399 13.125 18C13.125 17.7016 13.2435 17.4155 13.4545 17.2045C13.6655 16.9935 13.9516 16.875 14.25 16.875H18.5822C19.3479 16.8786 20.0918 16.6202 20.6903 16.1427C21.2889 15.6652 21.7062 14.9974 21.8728 14.25C22.0467 13.4839 22.1313 12.7003 22.125 11.9147C22.1158 10.5836 21.8422 9.26759 21.3203 8.04304C20.7984 6.81849 20.0385 5.70978 19.0847 4.78126ZM19.6791 13.7503C19.6232 13.999 19.4839 14.2211 19.2844 14.3797C19.0849 14.5383 18.8371 14.6239 18.5822 14.6222H14.25C13.3549 14.6222 12.4965 14.9778 11.8635 15.6107C11.2306 16.2436 10.875 17.1021 10.875 17.9972C10.8748 18.1771 10.8315 18.3543 10.7486 18.5139C10.6658 18.6736 10.5459 18.8111 10.399 18.9148C10.2521 19.0186 10.0824 19.0856 9.90424 19.1103C9.72607 19.1349 9.54459 19.1165 9.375 19.0566C7.81407 18.5053 6.50157 17.5791 5.58 16.3791C4.62267 15.1212 4.11081 13.5807 4.125 12C4.12489 9.92548 4.94337 7.93471 6.40263 6.46018C7.86188 4.98566 9.84403 4.1465 11.9184 4.12501H12C14.0745 4.13345 16.0626 4.95675 17.5357 6.41741C19.0088 7.87807 19.8489 9.8591 19.875 11.9334C19.8801 12.5458 19.8144 13.1568 19.6791 13.7541V13.7503ZM13.5 7.12501C13.5 7.42168 13.412 7.71169 13.2472 7.95836C13.0824 8.20504 12.8481 8.3973 12.574 8.51083C12.2999 8.62436 11.9983 8.65407 11.7074 8.59619C11.4164 8.53831 11.1491 8.39545 10.9393 8.18567C10.7296 7.97589 10.5867 7.70862 10.5288 7.41764C10.4709 7.12667 10.5007 6.82507 10.6142 6.55098C10.7277 6.2769 10.92 6.04263 11.1666 5.87781C11.4133 5.71298 11.7033 5.62501 12 5.62501C12.3978 5.62501 12.7794 5.78305 13.0607 6.06435C13.342 6.34565 13.5 6.72718 13.5 7.12501ZM9.375 9.37501C9.375 9.67168 9.28703 9.96169 9.12221 10.2084C8.95739 10.455 8.72312 10.6473 8.44903 10.7608C8.17494 10.8744 7.87334 10.9041 7.58237 10.8462C7.2914 10.7883 7.02412 10.6454 6.81434 10.4357C6.60456 10.2259 6.4617 9.95862 6.40382 9.66764C6.34595 9.37667 6.37565 9.07507 6.48918 8.80098C6.60272 8.5269 6.79497 8.29263 7.04165 8.1278C7.28832 7.96298 7.57833 7.87501 7.875 7.87501C8.27283 7.87501 8.65436 8.03304 8.93566 8.31435C9.21697 8.59565 9.375 8.97718 9.375 9.37501ZM9.375 14.625C9.375 14.9217 9.28703 15.2117 9.12221 15.4584C8.95739 15.705 8.72312 15.8973 8.44903 16.0108C8.17494 16.1244 7.87334 16.1541 7.58237 16.0962C7.2914 16.0383 7.02412 15.8954 6.81434 15.6857C6.60456 15.4759 6.4617 15.2086 6.40382 14.9176C6.34595 14.6267 6.37565 14.3251 6.48918 14.051C6.60272 13.7769 6.79497 13.5426 7.04165 13.3778C7.28832 13.213 7.57833 13.125 7.875 13.125C8.27283 13.125 8.65436 13.283 8.93566 13.5643C9.21697 13.8457 9.375 14.2272 9.375 14.625ZM17.625 9.37501C17.625 9.67168 17.537 9.96169 17.3722 10.2084C17.2074 10.455 16.9731 10.6473 16.699 10.7608C16.4249 10.8744 16.1233 10.9041 15.8324 10.8462C15.5414 10.7883 15.2741 10.6454 15.0643 10.4357C14.8546 10.2259 14.7117 9.95862 14.6538 9.66764C14.5959 9.37667 14.6257 9.07507 14.7392 8.80098C14.8527 8.5269 15.045 8.29263 15.2916 8.1278C15.5383 7.96298 15.8283 7.87501 16.125 7.87501C16.5228 7.87501 16.9044 8.03304 17.1857 8.31435C17.467 8.59565 17.625 8.97718 17.625 9.37501Z" fill="#00994F"/>
</svg>
