<svg width="24" height="24" viewBox="0 0 24 24" fill="none" xmlns="http://www.w3.org/2000/svg">
<path d="M14.2501 7.5C14.2501 7.20163 14.3686 6.91548 14.5796 6.7045C14.7906 6.49353 15.0767 6.375 15.3751 6.375H22.8751C23.1735 6.375 23.4596 6.49353 23.6706 6.7045C23.8816 6.91548 24.0001 7.20163 24.0001 7.5C24.0001 7.79837 23.8816 8.08452 23.6706 8.29549C23.4596 8.50647 23.1735 8.625 22.8751 8.625H15.3751C15.0767 8.625 14.7906 8.50647 14.5796 8.29549C14.3686 8.08452 14.2501 7.79837 14.2501 7.5ZM22.8751 10.875H15.3751C15.0767 10.875 14.7906 10.9935 14.5796 11.2045C14.3686 11.4155 14.2501 11.7016 14.2501 12C14.2501 12.2984 14.3686 12.5845 14.5796 12.7955C14.7906 13.0065 15.0767 13.125 15.3751 13.125H22.8751C23.1735 13.125 23.4596 13.0065 23.6706 12.7955C23.8816 12.5845 24.0001 12.2984 24.0001 12C24.0001 11.7016 23.8816 11.4155 23.6706 11.2045C23.4596 10.9935 23.1735 10.875 22.8751 10.875ZM22.8751 15.375H17.6251C17.3267 15.375 17.0406 15.4935 16.8296 15.7045C16.6186 15.9155 16.5001 16.2016 16.5001 16.5C16.5001 16.7984 16.6186 17.0845 16.8296 17.2955C17.0406 17.5065 17.3267 17.625 17.6251 17.625H22.8751C23.1735 17.625 23.4596 17.5065 23.6706 17.2955C23.8816 17.0845 24.0001 16.7984 24.0001 16.5C24.0001 16.2016 23.8816 15.9155 23.6706 15.7045C23.4596 15.4935 23.1735 15.375 22.8751 15.375ZM14.5895 17.7187C14.6264 17.8618 14.6348 18.0107 14.6142 18.157C14.5936 18.3033 14.5443 18.4442 14.4693 18.5714C14.3942 18.6987 14.2949 18.81 14.1768 18.8988C14.0588 18.9877 13.9244 19.0524 13.7813 19.0894C13.6383 19.1263 13.4894 19.1347 13.3431 19.1141C13.1967 19.0935 13.0559 19.0442 12.9287 18.9692C12.8014 18.8941 12.6901 18.7948 12.6013 18.6767C12.5124 18.5587 12.4477 18.4243 12.4107 18.2812C11.8745 16.1972 9.76322 14.625 7.5001 14.625C5.23697 14.625 3.12572 16.1962 2.58947 18.2812C2.55254 18.4243 2.48779 18.5587 2.39892 18.6767C2.31005 18.7948 2.1988 18.8941 2.07153 18.9692C1.94425 19.0442 1.80344 19.0935 1.65714 19.1141C1.51084 19.1347 1.3619 19.1263 1.21885 19.0894C1.07579 19.0524 0.941403 18.9877 0.823368 18.8988C0.705334 18.81 0.605958 18.6987 0.530917 18.5714C0.455876 18.4442 0.406638 18.3033 0.386014 18.157C0.365391 18.0107 0.373786 17.8618 0.41072 17.7187C0.915095 15.7594 2.29416 14.1412 4.07728 13.2187C3.38838 12.5398 2.917 11.6713 2.72311 10.7238C2.52922 9.77618 2.62159 8.79233 2.98846 7.8974C3.35533 7.00246 3.98013 6.23688 4.78336 5.69806C5.58658 5.15923 6.53194 4.87152 7.49916 4.87152C8.46637 4.87152 9.41173 5.15923 10.215 5.69806C11.0182 6.23688 11.643 7.00246 12.0099 7.8974C12.3767 8.79233 12.4691 9.77618 12.2752 10.7238C12.0813 11.6713 11.6099 12.5398 10.921 13.2187C12.706 14.1422 14.0851 15.7603 14.5895 17.7187ZM7.5001 12.375C8.01927 12.375 8.52679 12.221 8.95847 11.9326C9.39015 11.6442 9.7266 11.2342 9.92528 10.7545C10.124 10.2749 10.1759 9.74709 10.0747 9.23789C9.97337 8.72869 9.72336 8.26096 9.35625 7.89384C8.98914 7.52673 8.52141 7.27672 8.01221 7.17544C7.50301 7.07415 6.97521 7.12614 6.49555 7.32482C6.0159 7.5235 5.60593 7.85995 5.31749 8.29163C5.02905 8.72331 4.8751 9.23082 4.8751 9.75C4.8751 10.0947 4.94299 10.4361 5.07491 10.7545C5.20683 11.073 5.40019 11.3624 5.64394 11.6062C6.13622 12.0984 6.8039 12.375 7.5001 12.375Z" fill="#00994F"/>
</svg>
