<svg width="24" height="24" viewBox="0 0 24 24" fill="none" xmlns="http://www.w3.org/2000/svg">
<path d="M23.6711 13.1709L21.7961 15.0459C21.6916 15.1508 21.5674 15.234 21.4307 15.2908C21.2939 15.3476 21.1473 15.3768 20.9992 15.3768C20.8512 15.3768 20.7046 15.3476 20.5678 15.2908C20.4311 15.234 20.3069 15.1508 20.2024 15.0459L18.3274 13.1709C18.1228 12.9648 18.0058 12.6875 18.001 12.3971C17.9962 12.1067 18.1039 11.8257 18.3016 11.6128C18.4993 11.4 18.7716 11.2719 19.0616 11.2553C19.3515 11.2387 19.6367 11.3349 19.8574 11.5237C19.7606 9.93639 19.1854 8.41554 18.2077 7.16133C17.2299 5.90712 15.8953 4.97833 14.3795 4.49719C12.8638 4.01605 11.2378 4.0051 9.71571 4.46578C8.19359 4.92647 6.84662 5.8372 5.85205 7.07812C5.66361 7.30491 5.39368 7.44866 5.10033 7.47842C4.80697 7.50819 4.51366 7.4216 4.28351 7.23728C4.05337 7.05297 3.90478 6.78566 3.86973 6.4929C3.83468 6.20013 3.91597 5.9053 4.09611 5.67187C5.38314 4.06439 7.12971 2.88755 9.10285 2.29835C11.076 1.70914 13.1819 1.73558 15.1396 2.37413C17.0973 3.01268 18.8138 4.23299 20.0601 5.87227C21.3063 7.51155 22.0231 9.49187 22.1149 11.5491C22.3323 11.3556 22.6163 11.2539 22.9072 11.2654C23.1981 11.277 23.4731 11.4008 23.6746 11.6109C23.8761 11.821 23.9883 12.101 23.9876 12.3921C23.987 12.6832 23.8735 12.9627 23.6711 13.1719V13.1709ZM19.9042 18.3272C18.6172 19.9347 16.8706 21.1115 14.8975 21.7007C12.9244 22.2899 10.8185 22.2635 8.86075 21.6249C6.90303 20.9864 5.18654 19.7661 3.94028 18.1268C2.69401 16.4875 1.97721 14.5072 1.88549 12.45C1.66801 12.6435 1.384 12.7451 1.09314 12.7336C0.802273 12.7221 0.527201 12.5983 0.325722 12.3882C0.124243 12.1781 0.0120429 11.8981 0.0126982 11.607C0.0133534 11.3159 0.126813 11.0364 0.329236 10.8272L2.20424 8.95218C2.30875 8.8473 2.43294 8.76409 2.56969 8.70731C2.70644 8.65053 2.85304 8.6213 3.00111 8.6213C3.14918 8.6213 3.29579 8.65053 3.43253 8.70731C3.56928 8.76409 3.69347 8.8473 3.79799 8.95218L5.67299 10.8272C5.87758 11.0333 5.99451 11.3106 5.99931 11.601C6.00411 11.8915 5.89641 12.1725 5.69874 12.3853C5.50107 12.5981 5.22876 12.7262 4.93879 12.7428C4.64881 12.7594 4.36366 12.6632 4.14299 12.4744C4.23864 14.0759 4.82376 15.6093 5.81924 16.8675C6.54841 15.9401 7.47783 15.1895 8.53799 14.6719C7.86234 13.9877 7.40412 13.1189 7.22098 12.175C7.03783 11.231 7.13794 10.254 7.50871 9.36674C7.87948 8.47952 8.50435 7.72176 9.30471 7.1888C10.1051 6.65584 11.0452 6.37147 12.0067 6.37147C12.9683 6.37147 13.9084 6.65584 14.7088 7.1888C15.5091 7.72176 16.134 8.47952 16.5048 9.36674C16.8755 10.254 16.9756 11.231 16.7925 12.175C16.6094 13.1189 16.1511 13.9877 15.4755 14.6719C16.5342 15.1922 17.4614 15.9454 18.1877 16.875C18.3845 16.6626 18.6557 16.5343 18.9448 16.5168C19.2339 16.4994 19.5185 16.594 19.7396 16.7811C19.9606 16.9682 20.101 17.2333 20.1315 17.5213C20.162 17.8093 20.0802 18.0979 19.9033 18.3272H19.9042ZM12.0002 13.875C12.5193 13.875 13.0269 13.721 13.4585 13.4326C13.8902 13.1442 14.2267 12.7342 14.4254 12.2545C14.624 11.7749 14.676 11.2471 14.5747 10.7379C14.4734 10.2287 14.2234 9.76095 13.8563 9.39384C13.4892 9.02673 13.0215 8.77672 12.5123 8.67543C12.0031 8.57415 11.4753 8.62613 10.9956 8.82481C10.516 9.02349 10.106 9.35995 9.81756 9.79162C9.52913 10.2233 9.37517 10.7308 9.37517 11.25C9.37517 11.9462 9.65174 12.6139 10.144 13.1062C10.6363 13.5984 11.304 13.875 12.0002 13.875ZM12.0002 19.875C13.6281 19.8783 15.2166 19.3747 16.5452 18.4341C16.0235 17.7187 15.3403 17.1366 14.5512 16.7352C13.7621 16.3337 12.8893 16.1242 12.0039 16.1236C11.1186 16.1231 10.2456 16.3315 9.45597 16.732C8.66637 17.1325 7.98245 17.7137 7.45986 18.4284C8.78628 19.3706 10.3732 19.8762 12.0002 19.875Z" fill="#00994F"/>
</svg>
