<svg width="82" height="82" viewBox="0 0 82 82" fill="none" xmlns="http://www.w3.org/2000/svg">
<path d="M74.4326 66.7706C70.1238 59.2082 63.3955 53.3157 55.3309 50.0417C59.3414 47.0339 62.3038 42.8405 63.7985 38.0555C65.2932 33.2705 65.2445 28.1365 63.6592 23.3807C62.074 18.6249 59.0325 14.4885 54.9658 11.5573C50.899 8.62611 46.013 7.04881 41 7.04881C35.9869 7.04881 31.101 8.62611 27.0342 11.5573C22.9674 14.4885 19.926 18.6249 18.3407 23.3807C16.7555 28.1365 16.7068 33.2705 18.2015 38.0555C19.6962 42.8405 22.6586 47.0339 26.669 50.0417C18.6045 53.3157 11.8762 59.2082 7.56734 66.7706C7.30035 67.1999 7.1224 67.6785 7.04407 68.178C6.96575 68.6774 6.98864 69.1875 7.11139 69.678C7.23415 70.1684 7.45426 70.6291 7.75863 71.0328C8.06301 71.4365 8.44544 71.7748 8.88319 72.0277C9.32095 72.2807 9.80508 72.443 10.3068 72.505C10.8086 72.5671 11.3176 72.5277 11.8038 72.3891C12.29 72.2504 12.7434 72.0155 13.137 71.6982C13.5305 71.3809 13.8563 70.9876 14.0948 70.5419C19.7895 60.6988 29.8463 54.8281 41 54.8281C52.1536 54.8281 62.2104 60.7019 67.9051 70.5419C68.4221 71.3733 69.2422 71.971 70.1919 72.2087C71.1416 72.4464 72.1466 72.3055 72.9943 71.8157C73.842 71.3259 74.466 70.5257 74.7344 69.5842C75.0028 68.6427 74.8946 67.6338 74.4326 66.7706ZM24.6576 30.9432C24.6576 27.711 25.6161 24.5514 27.4118 21.8639C29.2075 19.1764 31.7599 17.0818 34.746 15.8448C37.7322 14.6079 41.0181 14.2843 44.1882 14.9149C47.3583 15.5454 50.2702 17.1019 52.5557 19.3874C54.8413 21.6729 56.3977 24.5849 57.0283 27.755C57.6589 30.9251 57.3352 34.211 56.0983 37.1971C54.8614 40.1833 52.7668 42.7356 50.0793 44.5313C47.3918 46.3271 44.2322 47.2855 41 47.2855C36.6673 47.2805 32.5134 45.5571 29.4497 42.4934C26.386 39.4297 24.6626 35.2759 24.6576 30.9432Z" fill="#737373"/>
</svg>
