<svg width="24" height="25" viewBox="0 0 24 25" fill="none" xmlns="http://www.w3.org/2000/svg">
<path d="M22.1306 18.0959C22.6525 16.9841 22.907 15.7657 22.874 14.538C22.8409 13.3102 22.5212 12.1072 21.9403 11.0251C21.3594 9.94303 20.5334 9.01179 19.5284 8.30584C18.5234 7.59988 17.3672 7.13878 16.1522 6.95937C15.7224 6.01226 15.1092 5.15968 14.348 4.45085C13.5869 3.74203 12.6929 3.191 11.7176 2.82958C10.7424 2.46816 9.70516 2.30352 8.66591 2.34515C7.62666 2.38678 6.60596 2.63387 5.66273 3.07215C4.7195 3.51042 3.87243 4.1312 3.17043 4.89864C2.46843 5.66609 1.92541 6.56499 1.57272 7.54344C1.22004 8.5219 1.06467 9.56053 1.11558 10.5994C1.1665 11.6382 1.4227 12.6567 1.86939 13.5959L1.19064 15.9734C1.10761 16.2632 1.10374 16.57 1.17942 16.8618C1.2551 17.1536 1.40757 17.4198 1.62098 17.6328C1.83438 17.8457 2.10093 17.9976 2.39291 18.0726C2.68489 18.1476 2.99164 18.143 3.28126 18.0594L5.65876 17.3806C6.35308 17.7044 7.0908 17.9255 7.84876 18.0369C8.28302 18.9811 8.89979 19.8301 9.66353 20.5349C10.4273 21.2398 11.3229 21.7866 12.2989 22.1438C13.2748 22.5011 14.3118 22.6618 15.3501 22.6166C16.3884 22.5714 17.4075 22.3213 18.3488 21.8806L20.7263 22.5594C21.0156 22.642 21.3217 22.6457 21.613 22.5702C21.9042 22.4947 22.17 22.3427 22.3828 22.1299C22.5955 21.9172 22.7475 21.6514 22.823 21.3602C22.8985 21.0689 22.8948 20.7628 22.8122 20.4734L22.1306 18.0959ZM5.76845 15.0519C5.66382 15.0518 5.55969 15.0663 5.45907 15.095L3.63189 15.6172L4.15407 13.79C4.2355 13.5058 4.20182 13.2011 4.06032 12.9416C3.41347 11.7537 3.21631 10.3725 3.50497 9.05105C3.79363 7.72962 4.54878 6.55645 5.63205 5.7465C6.71532 4.93655 8.05417 4.54406 9.40329 4.64094C10.7524 4.73783 12.0214 5.3176 12.9779 6.27402C13.9343 7.23044 14.5141 8.49948 14.6109 9.84859C14.7078 11.1977 14.3153 12.5366 13.5054 13.6198C12.6954 14.7031 11.5223 15.4582 10.2008 15.7469C8.87941 16.0356 7.49821 15.8384 6.31032 15.1916C6.1444 15.1001 5.95792 15.0523 5.76845 15.0528V15.0519ZM19.8459 18.29L20.3681 20.1172L18.5409 19.595C18.2568 19.5136 17.952 19.5472 17.6925 19.6887C16.4815 20.3476 15.0707 20.5393 13.7278 20.2274C12.3848 19.9155 11.203 19.1217 10.4063 17.9966C12.3608 17.6435 14.1096 16.5643 15.3015 14.9755C16.4935 13.3867 17.0405 11.4059 16.8328 9.43062C17.6065 9.69679 18.3129 10.1285 18.9026 10.6958C19.4923 11.263 19.9511 11.9521 20.2471 12.7149C20.5431 13.4777 20.6691 14.2959 20.6163 15.1124C20.5635 15.9289 20.3333 16.7241 19.9416 17.4425C19.7994 17.7018 19.7651 18.0065 19.8459 18.2909V18.29Z" fill="#00994F"/>
</svg>
