<svg width="24" height="18" viewBox="0 0 24 18" fill="none" xmlns="http://www.w3.org/2000/svg">
<path d="M16.4999 7.875H14.2499C13.9516 7.875 13.6654 7.75647 13.4544 7.54549C13.2435 7.33452 13.1249 7.04837 13.1249 6.75C13.1249 6.45163 13.2435 6.16548 13.4544 5.9545C13.6654 5.74353 13.9516 5.625 14.2499 5.625H16.4999C16.7983 5.625 17.0845 5.74353 17.2954 5.9545C17.5064 6.16548 17.6249 6.45163 17.6249 6.75C17.6249 7.04837 17.5064 7.33452 17.2954 7.54549C17.0845 7.75647 16.7983 7.875 16.4999 7.875ZM9.74994 5.625H9.37494V5.25C9.37493 4.95163 9.25641 4.66548 9.04543 4.4545C8.83445 4.24353 8.5483 4.125 8.24993 4.125C7.95157 4.125 7.66542 4.24353 7.45444 4.4545C7.24346 4.66548 7.12493 4.95163 7.12493 5.25V5.625H6.74993C6.45157 5.625 6.16542 5.74353 5.95444 5.9545C5.74346 6.16548 5.62493 6.45163 5.62493 6.75C5.62493 7.04837 5.74346 7.33452 5.95444 7.54549C6.16542 7.75647 6.45157 7.875 6.74993 7.875H7.12493V8.25C7.12493 8.54837 7.24346 8.83452 7.45444 9.04549C7.66542 9.25647 7.95157 9.375 8.24993 9.375C8.5483 9.375 8.83445 9.25647 9.04543 9.04549C9.25641 8.83452 9.37493 8.54837 9.37494 8.25V7.875H9.74994C10.0483 7.875 10.3345 7.75647 10.5454 7.54549C10.7564 7.33452 10.8749 7.04837 10.8749 6.75C10.8749 6.45163 10.7564 6.16548 10.5454 5.9545C10.3345 5.74353 10.0483 5.625 9.74994 5.625ZM22.9462 16.0256C22.6321 16.4735 22.2239 16.8472 21.7501 17.1205C21.2763 17.3939 20.7485 17.5603 20.2036 17.6081C19.6587 17.6559 19.11 17.5839 18.5958 17.3972C18.0817 17.2104 17.6147 16.9135 17.2274 16.5272C17.2099 16.5106 17.1933 16.4931 17.1777 16.4747L13.5627 12.375H10.4371L6.82587 16.4747C6.80993 16.4925 6.79306 16.5103 6.77618 16.5272C6.21209 17.0906 5.48312 17.4595 4.69511 17.5804C3.90709 17.7014 3.10104 17.568 2.39395 17.1998C1.68687 16.8315 1.11556 16.2474 0.762947 15.5324C0.410337 14.8174 0.294784 14.0086 0.43306 13.2234C0.432529 13.2172 0.432529 13.2109 0.43306 13.2047L1.96868 5.32406C2.21304 3.9379 2.93783 2.6821 4.01583 1.77709C5.09383 0.872066 6.45615 0.375661 7.86368 0.375H16.1249C17.5281 0.377 18.8863 0.87011 19.9639 1.76879C21.0416 2.66746 21.7706 3.91501 22.0246 5.295C22.0249 5.30093 22.0249 5.30688 22.0246 5.31281L23.5584 13.2037C23.5587 13.21 23.5587 13.2163 23.5584 13.2225C23.6467 13.707 23.638 14.2042 23.5329 14.6854C23.4279 15.1665 23.2284 15.622 22.9462 16.0256ZM16.1249 10.125C17.1195 10.125 18.0733 9.72991 18.7766 9.02665C19.4798 8.32339 19.8749 7.36956 19.8749 6.375C19.8749 5.38044 19.4798 4.42661 18.7766 3.72335C18.0733 3.02009 17.1195 2.625 16.1249 2.625H7.86462C6.98438 2.62587 6.13263 2.93713 5.45924 3.50404C4.78585 4.07094 4.33396 4.85716 4.18306 5.72437C4.18261 5.73093 4.18261 5.73751 4.18306 5.74406L2.65118 13.6191C2.58475 14.0098 2.67563 14.4109 2.90399 14.7348C3.13235 15.0587 3.47962 15.2791 3.86993 15.3478C4.1023 15.3883 4.34093 15.3737 4.56661 15.3052C4.7923 15.2366 4.99874 15.116 5.16931 14.9531L9.08431 10.5066C9.18982 10.3867 9.31963 10.2907 9.46511 10.2249C9.61058 10.1592 9.7684 10.1251 9.92806 10.125H16.1249ZM21.3524 13.6228L20.6962 10.2525C20.1801 10.8628 19.5469 11.3636 18.8341 11.7252C18.1213 12.0869 17.3432 12.3021 16.5459 12.3581L18.8343 14.9569C19.062 15.1754 19.3529 15.3164 19.6654 15.3601C19.978 15.4037 20.2963 15.3476 20.5752 15.1998C20.854 15.052 21.0792 14.8201 21.2185 14.5369C21.3579 14.2538 21.4044 13.9339 21.3515 13.6228H21.3524Z" fill="#00994F"/>
</svg>
