<svg width="38" height="38" viewBox="0 0 38 38" fill="none" xmlns="http://www.w3.org/2000/svg">
<circle cx="19" cy="19" r="19" fill="white"/>
<circle cx="19" cy="19" r="18.625" stroke="#00994F" stroke-opacity="0.3" stroke-width="0.75"/>
<path d="M26.5 9.625H24.625V9.25C24.625 8.95163 24.5065 8.66548 24.2955 8.4545C24.0845 8.24353 23.7984 8.125 23.5 8.125C23.2016 8.125 22.9155 8.24353 22.7045 8.4545C22.4935 8.66548 22.375 8.95163 22.375 9.25V9.625H15.625V9.25C15.625 8.95163 15.5065 8.66548 15.2955 8.4545C15.0845 8.24353 14.7984 8.125 14.5 8.125C14.2016 8.125 13.9155 8.24353 13.7045 8.4545C13.4935 8.66548 13.375 8.95163 13.375 9.25V9.625H11.5C11.0027 9.625 10.5258 9.82254 10.1742 10.1742C9.82254 10.5258 9.625 11.0027 9.625 11.5V26.5C9.625 26.9973 9.82254 27.4742 10.1742 27.8258C10.5258 28.1775 11.0027 28.375 11.5 28.375H26.5C26.9973 28.375 27.4742 28.1775 27.8258 27.8258C28.1775 27.4742 28.375 26.9973 28.375 26.5V11.5C28.375 11.0027 28.1775 10.5258 27.8258 10.1742C27.4742 9.82254 26.9973 9.625 26.5 9.625ZM13.375 11.875C13.375 12.1734 13.4935 12.4595 13.7045 12.6705C13.9155 12.8815 14.2016 13 14.5 13C14.7984 13 15.0845 12.8815 15.2955 12.6705C15.5065 12.4595 15.625 12.1734 15.625 11.875H22.375C22.375 12.1734 22.4935 12.4595 22.7045 12.6705C22.9155 12.8815 23.2016 13 23.5 13C23.7984 13 24.0845 12.8815 24.2955 12.6705C24.5065 12.4595 24.625 12.1734 24.625 11.875H26.125V14.125H11.875V11.875H13.375ZM11.875 26.125V16.375H26.125V26.125H11.875ZM17.5 18.625V23.875C17.5 24.1734 17.3815 24.4595 17.1705 24.6705C16.9595 24.8815 16.6734 25 16.375 25C16.0766 25 15.7905 24.8815 15.5795 24.6705C15.3685 24.4595 15.25 24.1734 15.25 23.875V20.4363C14.9823 20.5241 14.6914 20.5083 14.4348 20.392C14.1782 20.2757 13.9746 20.0674 13.8642 19.8082C13.7538 19.549 13.7446 19.2578 13.8386 18.9922C13.9325 18.7266 14.1227 18.5059 14.3716 18.3737L15.8716 17.6237C16.0427 17.5381 16.2329 17.4975 16.4241 17.5059C16.6153 17.5142 16.8012 17.5712 16.9643 17.6715C17.1273 17.7717 17.2621 17.9119 17.3558 18.0787C17.4495 18.2456 17.4992 18.4336 17.5 18.625ZM23.2647 21.8013L22.3656 22.75H22.75C23.0484 22.75 23.3345 22.8685 23.5455 23.0795C23.7565 23.2905 23.875 23.5766 23.875 23.875C23.875 24.1734 23.7565 24.4595 23.5455 24.6705C23.3345 24.8815 23.0484 25 22.75 25H19.75C19.5302 24.9999 19.3151 24.9354 19.1315 24.8145C18.9479 24.6936 18.8038 24.5215 18.7169 24.3195C18.6301 24.1176 18.6043 23.8946 18.6428 23.6781C18.6812 23.4617 18.7823 23.2612 18.9334 23.1016L21.5734 20.3125C21.6068 20.2556 21.6246 20.1909 21.625 20.125C21.6252 20.0423 21.5981 19.9618 21.5478 19.8961C21.4975 19.8304 21.4269 19.7832 21.347 19.7618C21.2671 19.7404 21.1823 19.746 21.1059 19.7778C21.0296 19.8096 20.9658 19.8657 20.9247 19.9375C20.7726 20.1901 20.5275 20.3729 20.242 20.4465C19.9566 20.5202 19.6536 20.4789 19.3983 20.3315C19.143 20.184 18.9558 19.9423 18.8769 19.6582C18.798 19.3741 18.8338 19.0704 18.9766 18.8125C19.2655 18.312 19.7114 17.9208 20.2453 17.6997C20.7792 17.4785 21.3712 17.4397 21.9294 17.5892C22.4876 17.7388 22.9808 18.0684 23.3326 18.5269C23.6844 18.9854 23.875 19.5471 23.875 20.125C23.8767 20.6956 23.6909 21.2509 23.3463 21.7056C23.3211 21.7392 23.2939 21.7711 23.2647 21.8013Z" fill="#00994F"/>
</svg>
