<svg width="22" height="21" viewBox="0 0 22 21" fill="none" xmlns="http://www.w3.org/2000/svg">
<path d="M20.9731 18.6875C19.6878 16.4316 17.6807 14.6738 15.275 13.6972C16.4713 12.7999 17.355 11.549 17.8009 10.1216C18.2468 8.69424 18.2322 7.16273 17.7593 5.74406C17.2865 4.32539 16.3792 3.09147 15.166 2.21708C13.9529 1.3427 12.4954 0.872185 11 0.872185C9.50457 0.872185 8.04706 1.3427 6.83392 2.21708C5.62078 3.09147 4.7135 4.32539 4.24061 5.74406C3.76772 7.16273 3.75319 8.69424 4.19907 10.1216C4.64496 11.549 5.52865 12.7999 6.72498 13.6972C4.31928 14.6738 2.31221 16.4316 1.02686 18.6875C0.94721 18.8156 0.894127 18.9583 0.870762 19.1073C0.847396 19.2563 0.854226 19.4085 0.890844 19.5548C0.927462 19.7011 0.993122 19.8385 1.08392 19.9589C1.17472 20.0794 1.2888 20.1803 1.41938 20.2557C1.54996 20.3312 1.69438 20.3796 1.84405 20.3981C1.99373 20.4166 2.14559 20.4049 2.29062 20.3635C2.43566 20.3222 2.57089 20.2521 2.6883 20.1574C2.8057 20.0628 2.90288 19.9455 2.97404 19.8125C4.67279 16.8762 7.67279 15.125 11 15.125C14.3272 15.125 17.3272 16.8772 19.0259 19.8125C19.1802 20.0605 19.4248 20.2388 19.7081 20.3097C19.9914 20.3806 20.2912 20.3386 20.544 20.1925C20.7969 20.0464 20.9831 19.8077 21.0631 19.5268C21.1432 19.246 21.1109 18.945 20.9731 18.6875ZM6.12498 8C6.12498 7.03581 6.41089 6.09328 6.94657 5.29159C7.48224 4.4899 8.24361 3.86506 9.1344 3.49608C10.0252 3.12711 11.0054 3.03057 11.951 3.21867C12.8967 3.40677 13.7653 3.87107 14.4471 4.55285C15.1289 5.23463 15.5932 6.10327 15.7813 7.04893C15.9694 7.99459 15.8729 8.97479 15.5039 9.86558C15.1349 10.7564 14.5101 11.5177 13.7084 12.0534C12.9067 12.5891 11.9642 12.875 11 12.875C9.70751 12.8735 8.4684 12.3594 7.55448 11.4455C6.64056 10.5316 6.12647 9.29247 6.12498 8Z" fill="#00994F"/>
</svg>
