<svg width="24" height="25" viewBox="0 0 24 25" fill="none" xmlns="http://www.w3.org/2000/svg">
<path d="M22.5 14.75C22.5002 14.0595 22.3097 13.3824 21.9496 12.7933C21.5896 12.2042 21.0738 11.7259 20.4593 11.4112C19.8447 11.0965 19.1552 10.9576 18.4667 11.0097C17.7782 11.0619 17.1175 11.3031 16.5574 11.7068C15.9972 12.1106 15.5594 12.6611 15.2922 13.2977C15.025 13.9344 14.9387 14.6324 15.043 15.315C15.1472 15.9975 15.4378 16.6381 15.8828 17.166C16.3278 17.6939 16.9099 18.0887 17.565 18.3069C17.4378 18.8926 17.114 19.4173 16.6474 19.7935C16.1808 20.1697 15.5994 20.3749 15 20.375H12.75C12.0538 20.375 11.3861 20.0984 10.8938 19.6062C10.4016 19.1139 10.125 18.4462 10.125 17.75V14.2719C13.0997 13.73 15.375 11.0759 15.375 7.92219V4.25C15.375 4.00377 15.3265 3.75995 15.2323 3.53247C15.138 3.30498 14.9999 3.09828 14.8258 2.92417C14.6517 2.75006 14.445 2.61195 14.2175 2.51773C13.99 2.4235 13.7462 2.375 13.5 2.375H12C11.7016 2.375 11.4155 2.49353 11.2045 2.7045C10.9935 2.91548 10.875 3.20163 10.875 3.5C10.875 3.79837 10.9935 4.08452 11.2045 4.2955C11.4155 4.50647 11.7016 4.625 12 4.625H13.125V7.92219C13.125 10.2097 11.2997 12.0959 9.05531 12.125C8.50897 12.1323 7.96662 12.031 7.45975 11.827C6.95288 11.623 6.49159 11.3203 6.10267 10.9365C5.71375 10.5528 5.40495 10.0956 5.1942 9.59145C4.98345 9.08734 4.87495 8.54639 4.875 8V4.625H6C6.29837 4.625 6.58452 4.50647 6.7955 4.2955C7.00647 4.08452 7.125 3.79837 7.125 3.5C7.125 3.20163 7.00647 2.91548 6.7955 2.7045C6.58452 2.49353 6.29837 2.375 6 2.375H4.5C4.00272 2.375 3.52581 2.57254 3.17417 2.92417C2.82254 3.27581 2.625 3.75272 2.625 4.25V8C2.62506 9.49559 3.15095 10.9436 4.11068 12.0906C5.07041 13.2377 6.40288 14.0108 7.875 14.2747V17.75C7.87649 19.0425 8.39058 20.2816 9.3045 21.1955C10.2184 22.1094 11.4575 22.6235 12.75 22.625H15C16.1905 22.6236 17.3394 22.1871 18.2305 21.3977C19.1216 20.6083 19.6935 19.5204 19.8384 18.3387C20.6077 18.1042 21.2815 17.6289 21.7606 16.9829C22.2397 16.3369 22.4988 15.5543 22.5 14.75ZM18.75 16.25C18.4533 16.25 18.1633 16.162 17.9166 15.9972C17.67 15.8324 17.4777 15.5981 17.3642 15.324C17.2506 15.0499 17.2209 14.7483 17.2788 14.4574C17.3367 14.1664 17.4796 13.8991 17.6893 13.6893C17.8991 13.4796 18.1664 13.3367 18.4574 13.2788C18.7483 13.2209 19.0499 13.2506 19.324 13.3642C19.5981 13.4777 19.8324 13.67 19.9972 13.9166C20.162 14.1633 20.25 14.4533 20.25 14.75C20.25 15.1478 20.092 15.5294 19.8107 15.8107C19.5294 16.092 19.1478 16.25 18.75 16.25Z" fill="#00994F"/>
</svg>
