<svg width="20" height="18" viewBox="0 0 20 18" fill="none" xmlns="http://www.w3.org/2000/svg">
<path d="M19.375 9C19.375 9.29837 19.2564 9.58451 19.0455 9.79549C18.8345 10.0065 18.5483 10.125 18.25 10.125H9.99996C9.70159 10.125 9.41544 10.0065 9.20446 9.79549C8.99349 9.58451 8.87496 9.29837 8.87496 9C8.87496 8.70163 8.99349 8.41548 9.20446 8.2045C9.41544 7.99352 9.70159 7.875 9.99996 7.875H18.25C18.5483 7.875 18.8345 7.99352 19.0455 8.2045C19.2564 8.41548 19.375 8.70163 19.375 9ZM9.99996 4.125H18.25C18.5483 4.125 18.8345 4.00647 19.0455 3.79549C19.2564 3.58451 19.375 3.29836 19.375 3C19.375 2.70163 19.2564 2.41548 19.0455 2.2045C18.8345 1.99352 18.5483 1.875 18.25 1.875H9.99996C9.70159 1.875 9.41544 1.99352 9.20446 2.2045C8.99349 2.41548 8.87496 2.70163 8.87496 3C8.87496 3.29836 8.99349 3.58451 9.20446 3.79549C9.41544 4.00647 9.70159 4.125 9.99996 4.125ZM18.25 13.875H9.99996C9.70159 13.875 9.41544 13.9935 9.20446 14.2045C8.99349 14.4155 8.87496 14.7016 8.87496 15C8.87496 15.2984 8.99349 15.5845 9.20446 15.7955C9.41544 16.0065 9.70159 16.125 9.99996 16.125H18.25C18.5483 16.125 18.8345 16.0065 19.0455 15.7955C19.2564 15.5845 19.375 15.2984 19.375 15C19.375 14.7016 19.2564 14.4155 19.0455 14.2045C18.8345 13.9935 18.5483 13.875 18.25 13.875ZM5.45402 0.704059L3.24996 2.90625L2.5459 2.20125C2.33455 1.9899 2.04791 1.87117 1.74902 1.87117C1.45014 1.87117 1.16349 1.9899 0.952147 2.20125C0.740802 2.41259 0.62207 2.69924 0.62207 2.99812C0.62207 3.29701 0.740802 3.58365 0.952147 3.795L2.45215 5.295C2.55666 5.39988 2.68086 5.48309 2.8176 5.53987C2.95435 5.59665 3.10096 5.62588 3.24902 5.62588C3.39709 5.62588 3.5437 5.59665 3.68044 5.53987C3.81719 5.48309 3.94138 5.39988 4.0459 5.295L7.0459 2.295C7.25724 2.08365 7.37597 1.79701 7.37597 1.49812C7.37597 1.19924 7.25724 0.912591 7.0459 0.701246C6.83455 0.489902 6.54791 0.37117 6.24902 0.37117C5.95014 0.37117 5.66349 0.489902 5.45215 0.701246L5.45402 0.704059ZM5.45402 6.70406L3.24996 8.90625L2.5459 8.20125C2.33455 7.9899 2.04791 7.87117 1.74902 7.87117C1.45014 7.87117 1.16349 7.9899 0.952147 8.20125C0.740802 8.41259 0.62207 8.69923 0.62207 8.99812C0.62207 9.29701 0.740802 9.58365 0.952147 9.795L2.45215 11.295C2.55666 11.3999 2.68086 11.4831 2.8176 11.5399C2.95435 11.5967 3.10096 11.6259 3.24902 11.6259C3.39709 11.6259 3.5437 11.5967 3.68044 11.5399C3.81719 11.4831 3.94138 11.3999 4.0459 11.295L7.0459 8.295C7.25724 8.08365 7.37597 7.79701 7.37597 7.49812C7.37597 7.19923 7.25724 6.91259 7.0459 6.70125C6.83455 6.4899 6.54791 6.37117 6.24902 6.37117C5.95014 6.37117 5.66349 6.4899 5.45215 6.70125L5.45402 6.70406ZM5.45402 12.7041L3.24996 14.9062L2.5459 14.2012C2.44125 14.0966 2.31702 14.0136 2.18029 13.957C2.04356 13.9003 1.89702 13.8712 1.74902 13.8712C1.60103 13.8712 1.45448 13.9003 1.31776 13.957C1.18103 14.0136 1.05679 14.0966 0.952147 14.2012C0.8475 14.3059 0.764489 14.4301 0.707854 14.5669C0.65122 14.7036 0.62207 14.8501 0.62207 14.9981C0.62207 15.1461 0.65122 15.2927 0.707854 15.4294C0.764489 15.5661 0.8475 15.6903 0.952147 15.795L2.45215 17.295C2.55666 17.3999 2.68086 17.4831 2.8176 17.5399C2.95435 17.5967 3.10096 17.6259 3.24902 17.6259C3.39709 17.6259 3.5437 17.5967 3.68044 17.5399C3.81719 17.4831 3.94138 17.3999 4.0459 17.295L7.0459 14.295C7.25724 14.0837 7.37597 13.797 7.37597 13.4981C7.37597 13.1992 7.25724 12.9126 7.0459 12.7012C6.83455 12.4899 6.54791 12.3712 6.24902 12.3712C5.95014 12.3712 5.66349 12.4899 5.45215 12.7012L5.45402 12.7041Z" fill="#00994F"/>
</svg>
