<svg width="44" height="16" viewBox="0 0 44 16" fill="none" xmlns="http://www.w3.org/2000/svg">
<path d="M5.552 15.68C4.784 15.68 4.08533 15.5947 3.456 15.424C2.83733 15.2533 2.304 14.9973 1.856 14.656C1.41867 14.3253 1.07733 13.904 0.832 13.392C0.597333 12.8907 0.48 12.304 0.48 11.632C0.48 11.3227 0.533333 10.9013 0.64 10.368C0.746667 9.83467 0.928 9.23733 1.184 8.576L2.592 9.04C2.42133 9.49867 2.29333 9.93067 2.208 10.336C2.13333 10.7307 2.096 11.0827 2.096 11.392C2.096 11.8293 2.17067 12.2133 2.32 12.544C2.48 12.8747 2.71467 13.152 3.024 13.376C3.33333 13.6 3.712 13.7653 4.16 13.872C4.61867 13.9893 5.14133 14.048 5.728 14.048C6.45333 14.048 7.08267 13.9787 7.616 13.84C8.14933 13.712 8.592 13.5467 8.944 13.344C9.30667 13.152 9.57333 12.944 9.744 12.72C9.92533 12.5067 10.016 12.3147 10.016 12.144C10.016 11.984 9.952 11.8293 9.824 11.68C9.70667 11.52 9.49867 11.36 9.2 11.2C8.90133 11.0293 8.48533 10.848 7.952 10.656L8.736 9.232C9.312 9.552 9.776 9.824 10.128 10.048C10.4907 10.272 10.768 10.4747 10.96 10.656C11.1627 10.8267 11.3013 10.992 11.376 11.152C11.4507 11.312 11.488 11.4987 11.488 11.712C11.488 12.0533 11.4187 12.4107 11.28 12.784C11.1413 13.1573 10.9227 13.5147 10.624 13.856C10.336 14.1973 9.95733 14.5067 9.488 14.784C9.02933 15.0613 8.47467 15.28 7.824 15.44C7.17333 15.6 6.416 15.68 5.552 15.68ZM12.88 12C12.6453 12 12.3733 11.9733 12.064 11.92C11.7547 11.8667 11.4293 11.7867 11.088 11.68C10.7573 11.5733 10.4213 11.4453 10.08 11.296C9.74933 11.136 9.44 10.9547 9.152 10.752L8.736 9.232C9.216 9.46667 9.648 9.65867 10.032 9.808C10.416 9.95733 10.768 10.0747 11.088 10.16C11.4187 10.2347 11.728 10.288 12.016 10.32C12.304 10.352 12.592 10.368 12.88 10.368H12.912V12H12.88ZM24.2663 9.616C24.5969 9.92533 24.9649 10.128 25.3703 10.224C25.7756 10.32 26.2129 10.368 26.6823 10.368V12C26.0636 12 25.4663 11.8773 24.8903 11.632C24.3249 11.376 23.8609 10.9547 23.4983 10.368L24.2663 9.616ZM12.9062 12V10.368H23.4343C23.4449 9.58933 23.3756 8.928 23.2263 8.384C23.0769 7.82933 22.8316 7.40267 22.4903 7.104C22.1596 6.80533 21.7063 6.656 21.1302 6.656C20.5436 6.656 19.9409 6.85333 19.3223 7.248C18.7036 7.64267 18.0849 8.224 17.4663 8.992C16.8583 9.74933 16.2609 10.688 15.6743 11.808L15.0343 10.496C15.6316 9.25867 16.2663 8.23467 16.9383 7.424C17.6103 6.60267 18.3143 5.99467 19.0503 5.6C19.7969 5.19467 20.5543 4.992 21.3223 4.992C22.1116 4.992 22.7729 5.17333 23.3063 5.536C23.8396 5.888 24.2503 6.384 24.5383 7.024C24.8263 7.664 24.9863 8.41067 25.0183 9.264C25.0609 10.1067 24.9756 11.0187 24.7623 12H12.9062ZM14.7463 12V0.16H16.4103V12H14.7463ZM12.9062 10.368H13.0663V12H12.9062C12.5862 12 12.4262 11.7173 12.4262 11.152C12.4262 10.6293 12.5862 10.368 12.9062 10.368ZM38.3515 12C37.7008 12 37.1462 11.9253 36.6875 11.776C36.2395 11.6267 35.8768 11.3973 35.5995 11.088C35.3222 10.768 35.1088 10.3627 34.9595 9.872L36.0795 9.328C36.1968 9.57333 36.3462 9.776 36.5275 9.936C36.7195 10.0853 36.9648 10.1973 37.2635 10.272C37.5728 10.336 37.9515 10.368 38.3995 10.368H38.9275V12H38.3515ZM26.6875 10.368H26.8475V12H26.6875C26.3675 12 26.2075 11.7173 26.2075 11.152C26.2075 10.6293 26.3675 10.368 26.6875 10.368ZM26.6875 12V10.368H27.1515C28.1542 10.368 29.0128 10.3307 29.7275 10.256C30.4422 10.1813 31.0555 10.08 31.5675 9.952C32.0902 9.824 32.5488 9.67467 32.9435 9.504C33.3382 9.32267 33.7168 9.136 34.0795 8.944C34.1862 8.88 34.2928 8.82133 34.3995 8.768C34.5062 8.71467 34.6128 8.66133 34.7195 8.608C34.8262 8.55467 34.9328 8.50133 35.0395 8.448C34.6342 8.29867 34.2342 8.128 33.8395 7.936C33.4448 7.73333 33.0555 7.536 32.6715 7.344C32.2875 7.14133 31.9088 6.976 31.5355 6.848C31.1728 6.72 30.8155 6.656 30.4635 6.656C30.1435 6.656 29.8075 6.74133 29.4555 6.912C29.1035 7.072 28.7728 7.43467 28.4635 8L27.3115 7.408C27.5995 6.82133 27.9195 6.352 28.2715 6C28.6342 5.648 29.0182 5.392 29.4235 5.232C29.8395 5.072 30.2608 4.992 30.6875 4.992C31.1995 4.992 31.6902 5.088 32.1595 5.28C32.6395 5.46133 33.1035 5.68533 33.5515 5.952C34.0102 6.21867 34.4582 6.49067 34.8955 6.768C35.3328 7.03467 35.7702 7.264 36.2075 7.456C36.6448 7.63733 37.0822 7.728 37.5195 7.728V9.168C37.2208 9.168 36.8422 9.27467 36.3835 9.488C35.9355 9.70133 35.4182 9.96267 34.8315 10.272C34.4688 10.464 34.0688 10.6613 33.6315 10.864C33.1942 11.0667 32.6822 11.2533 32.0955 11.424C31.5088 11.5947 30.8048 11.7333 29.9835 11.84C29.1622 11.9467 28.1862 12 27.0555 12H26.6875ZM26.6875 10.368H26.8475V12H26.6875C26.3675 12 26.2075 11.7173 26.2075 11.152C26.2075 10.6293 26.3675 10.368 26.6875 10.368ZM30.7195 3.28L29.4235 1.968L30.6555 0.655999L31.9515 1.968L30.7195 3.28ZM38.9219 12V10.368H41.7859C41.7859 9.64267 41.6739 8.976 41.4499 8.368C41.2365 7.76 40.9485 7.12533 40.5859 6.464L42.0419 4.992C42.3512 5.664 42.6232 6.36267 42.8579 7.088C43.1032 7.81333 43.2419 8.58133 43.2739 9.392C43.3059 10.192 43.1512 11.0613 42.8099 12H38.9219ZM38.9219 10.368H39.0819V12H38.9219C38.6019 12 38.4419 11.7173 38.4419 11.152C38.4419 10.6293 38.6019 10.368 38.9219 10.368ZM39.9939 3.28L38.6979 1.968L39.9299 0.655999L41.2259 1.968L39.9939 3.28ZM42.7459 3.28L41.4499 1.968L42.6819 0.655999L43.9779 1.968L42.7459 3.28Z" fill="#121212"/>
</svg>
